<?xml version="1.0"?>
<svg version="1.1" id="圖層_1" xmlns="http://www.w3.org/2000/svg" x="0" y="0" viewBox="0 0 100 100" xml:space="preserve"><path d="M75.9 42.5v41.1c0 .2 0 .4-.1.5-.2.5-.7.8-1.2.8h-6.7l-1.2 4.3h7.9c3.1 0 5.6-2.5 5.6-5.6V46.8l-4.3-4.3z" fill="#f8b26a"/><path d="M80.2 54.4l3 3c2.1 2.1 5.6 2.1 7.7 0l.1-.1c2.1-2.1 2.1-5.6 0-7.7L80.2 38.9 73.3 32 53.7 12.4c-2-2-5.3-2-7.3 0L26.7 32l-6.9 6.9L9.1 49.6c-2.1 2.1-2.1 5.6 0 7.7l.1.1c2.1 2.1 5.6 2.1 7.7 0l3-3 4.3-4.3L38 36.3l4.3-4.3 7.8-7.8 7.8 7.8 4.3 4.3L76 50.1l4.2 4.3z" fill="#c33737"/><path d="M25.5 84.9c-.5 0-1-.3-1.2-.8-.1-.2-.1-.3-.1-.5V42.5l-4.3 4.3v36.7c0 3.1 2.5 5.6 5.6 5.6h8.1l2.2-4.3H25.5z" fill="#f8b26a"/><path d="M24.3 84c.2.5.7.8 1.2.8h10.2l10.1-20.2H33.3l18.1-24.3-5 15c.2 0 16.1-.1 16.1-.1L55 74.6l15.8.2-2.9 10.1h6.7c.5 0 1-.3 1.2-.8.1-.2.1-.3.1-.5V50.1L62.1 36.3 57.8 32 50 24.2 42.2 32l-4.3 4.3-13.8 13.8v33.5c0 .1.1.3.2.4z" fill="#f5e6c8"/><path d="M25.5 84.9c-.5 0-1-.3-1.2-.8.2.4.6.8 1.2.8h10.2-10.2z" fill="#f5e6c8"/><path d="M74.5 84.9h-6.7 6.7c.5 0 1-.3 1.2-.8-.2.4-.6.8-1.2.8z" fill="#f5e6c8"/><metadata xmlns:d="https://loading.io/stock/"><d:name>earthquake</d:name><d:tags>shock,collapse,tremble,shack,shelter,earthquake,weather</d:tags><d:license>pro</d:license><d:slug>6ywezm</d:slug></metadata></svg>